# xmcd
#
# Track frame offsets: 
#        150
#        21565
#        36040
#        48482
#        60337
#        73107
#        85687
#        101885
#        113135
#        126182
#        138557
#        151842
#        166532
#        178990
#        191217
#        206977
#
# Disc length: 2931 seconds
#
# Revision: 0
# Processed by: cddbd v1.5.2PL0 Copyright (c) Steve Scherf et al.
# Submitted via: ExactAudioCopy v0.99pb3
#
DISCID=e70b7110
DTITLE=Grand Pops Orchestra - POETRY of THE BIRD Vol 2
DYEAR=1900
DGENRE=Blues
TTITLE0=Lover's Theme
TTITLE1=Over The Rainbow
TTITLE2=Around The World
TTITLE3=Ballade pour Adeline
TTITLE4=Triste Coeur
TTITLE5=La Mer
TTITLE6=More
TTITLE7=I'm Getting Sentimenatl Over You
TTITLE8=Johnny Guitar
TTITLE9=Que Sera Sera
TTITLE10=Toccatta
TTITLE11=Mona Lisa
TTITLE12=Twilight Time
TTITLE13=Love Me WIth Al Of Your heart
TTITLE14=Concerto Pour Une Jeune Fille Homme Je T'aime
TTITLE15=Tonight
EXTD=
EXTT0=
EXTT1=
EXTT2=
EXTT3=
EXTT4=
EXTT5=
EXTT6=
EXTT7=
EXTT8=
EXTT9=
EXTT10=
EXTT11=
EXTT12=
EXTT13=
EXTT14=
EXTT15=
PLAYORDER=
